<?xml version="1.0" encoding="UTF-8"?>
<svg id="Capa_1" xmlns="http://www.w3.org/2000/svg" version="1.1" xmlns:xlink="http://www.w3.org/1999/xlink" viewBox="0 0 228.52 161.58">
  <!-- Generator: Adobe Illustrator 29.0.1, SVG Export Plug-In . SVG Version: 2.1.0 Build 192)  -->
  <defs>
    <style>
      .st0 {
        fill: #fff;
      }

      .st0, .st1, .st2, .st3, .st4, .st5, .st6 {
        fill-rule: evenodd;
      }

      .st1 {
        fill: #657998;
      }

      .st2 {
        fill: #5f606a;
      }

      .st7 {
        clip-rule: evenodd;
        fill: none;
      }

      .st3 {
        stroke: #425069;
        stroke-miterlimit: 22.93;
        stroke-width: .36px;
      }

      .st3, .st4 {
        fill: #425069;
      }

      .st5 {
        fill: #6a98d0;
      }

      .st6 {
        fill: #d4d1d2;
      }

      .st8 {
        clip-path: url(#clippath);
      }
    </style>
    <clipPath id="clippath">
      <path class="st7" d="M171.65,48.8c-12.83,1.76-20.74,13.13-17.94,27.77,2.78,14.55,14.54,23.31,27.36,21.55,12.91-1.77,20.8-13.23,18.02-27.78-2.8-14.65-14.54-23.31-27.44-21.53Z"/>
    </clipPath>
  </defs>
  <path class="st3" d="M20.8,123.29h1.68v-5.75h2.08c2.31,0,3.93-1.41,3.93-3.94,0-3.91-3.03-3.91-4.21-3.91h-3.47v13.6h0ZM22.48,111.06h1.89c1.66,0,2.36.97,2.36,2.46,0,1.81-1.03,2.65-2.25,2.65h-2v-5.11h0ZM37.24,119.25c0,2.8,1.26,4.31,3.98,4.31s4-1.7,4-4.31v-9.56h-1.68v9.56c0,1.91-.53,2.93-2.32,2.93-1.66,0-2.31-.93-2.31-2.93v-9.56h-1.68v9.56h0ZM56.39,116.81h2c1.47,0,2.67.72,2.67,2.59,0,1.31-.61,2.51-2.38,2.51h-2.29v-5.11h0ZM54.71,123.29h3.7c2.84,0,4.4-1.12,4.4-3.89,0-1.68-.74-2.95-2.42-3.35v-.04c1.24-.36,1.98-1.6,1.98-2.84,0-2.65-1.71-3.49-3.49-3.49h-4.17v13.6h0ZM56.39,111.06h1.89c1.64,0,2.34.82,2.34,2.23,0,2.1-1.6,2.27-2.31,2.27h-1.92v-4.5h0ZM72.02,123.29h7.2v-1.49h-5.53v-12.12h-1.68v13.6h0ZM87.91,123.29h1.68v-13.6h-1.68v13.6h0ZM105.8,118.62c-.06,1.66-.34,3.56-2.38,3.56-2.32,0-2.63-2.55-2.63-5.7s.3-5.7,2.63-5.7c1.73,0,2.23,1.31,2.27,2.86h1.75c-.08-2.67-1.24-4.23-4.02-4.23-3.75,0-4.38,3.64-4.38,7.07s.51,7.07,4.38,7.07c2.97,0,3.98-2.36,4.13-4.93h-1.75ZM116.54,123.29h1.68v-13.6h-1.68v13.6h0ZM131.99,111.17h3.43v-1.49h-8.52v1.49h3.41v12.12h1.68v-12.12h0ZM141.79,123.29h1.75l1.01-3.73h4.34l.97,3.73h1.75l-3.66-13.6h-2.25l-3.92,13.6h0ZM146.79,111.61h.04l1.73,6.57h-3.66l1.89-6.57h0ZM160,123.29h1.68v-6.06h2.27c.86,0,1.89.11,2.02,1.98l.11,2.11c.04.67.17,1.68.46,1.96h2.02c-.4-.25-.65-.63-.72-2.13l-.11-2.32c-.08-1.16-.74-2.13-1.92-2.27v-.04c1.58-.38,2.1-1.94,2.1-3.43,0-2.15-1.35-3.41-3.49-3.41h-4.4v13.6h0ZM161.68,111.06h2c1.56,0,2.46.84,2.46,2.17,0,2.63-1.81,2.63-2.8,2.63h-1.66v-4.8h0ZM177.32,123.29h1.68v-13.6h-1.68v13.6h0ZM192.82,109.42c-3.75,0-4.38,3.64-4.38,7.07s.63,7.07,4.38,7.07,4.38-3.64,4.38-7.07-.63-7.07-4.38-7.07h0ZM192.82,110.79c2.32,0,2.63,2.55,2.63,5.7s-.31,5.7-2.63,5.7-2.63-2.55-2.63-5.7.31-5.7,2.63-5.7Z"/>
  <path class="st4" d="M155.33,54.92l-25.62,25.48c-3.01,3.72-3.36,6.82,1.3,8.04l37.14,9.66-12.81-43.18Z"/>
  <path class="st0" d="M167.4,49.2c-12.83,1.76-20.74,13.13-17.94,27.77,2.78,14.55,14.54,23.31,27.36,21.55,12.91-1.77,20.8-13.23,18.02-27.78-2.8-14.65-14.54-23.31-27.45-21.53Z"/>
  <path class="st6" d="M169.22,49.2c-12.83,1.76-20.74,13.13-17.94,27.77,2.78,14.55,14.54,23.31,27.36,21.55,12.91-1.77,20.8-13.23,18.02-27.78-2.8-14.65-14.54-23.31-27.45-21.53Z"/>
  <path class="st1" d="M171.65,48.8c-12.83,1.76-20.74,13.13-17.94,27.77,2.78,14.55,14.54,23.31,27.36,21.55,12.91-1.77,20.8-13.23,18.02-27.78-2.8-14.65-14.54-23.31-27.44-21.53Z"/>
  <g class="st8">
    <g>
      <path class="st4" d="M137.32,75.99c1.38,5.59-.33,5.67,3.28,9.09l35.12-4.22c2.05-1.48,5.82-5.31,5.2-8.52-.85-4.45-5.12-7.01-9.18-6.45l-34.42,10.1Z"/>
      <path class="st0" d="M175.73,80.85c-3.98.55-7.18-2.25-8.03-6.7-.85-4.45,1.15-7.96,5.12-8.51,4.06-.56,7.26,2.24,8.11,6.69.85,4.45-1.14,7.96-5.2,8.52Z"/>
    </g>
  </g>
  <g>
    <path class="st0" d="M152.96,98.71l-14.14-20.59,10-19.12c.91-1.75-.46-3.82-2.42-3.68l-13.36.95c-1.49.11-2.84,1.05-3.49,2.41l-7.42,15.83-2.28-32.04c-.13-1.87-1.73-3.26-3.6-3.12l-11.86.85c-1.78.13-3.16,1.73-3.03,3.6l4.18,58.67c.13,1.87,1.73,3.26,3.51,3.13l11.86-.85c1.87-.13,3.26-1.73,3.12-3.6l-1.13-15.88,10.18,16.36c.75,1.35,2.31,2.09,3.8,1.98l14.29-1.02c1.87-.13,2.93-2.37,1.79-3.88Z"/>
    <path class="st2" d="M149.97,97.39l-14.14-20.59,10-19.12c.91-1.75-.46-3.82-2.42-3.68l-13.36.95c-1.49.11-2.84,1.05-3.49,2.41l-7.42,15.83-2.28-32.04c-.13-1.87-1.73-3.26-3.6-3.12l-11.86.85c-1.77.13-3.16,1.73-3.03,3.6l4.18,58.67c.13,1.87,1.73,3.26,3.51,3.13l11.86-.85c1.87-.13,3.26-1.73,3.12-3.6l-1.13-15.88,10.18,16.36c.75,1.35,2.31,2.09,3.8,1.98l14.29-1.02c1.87-.13,2.93-2.37,1.79-3.88Z"/>
  </g>
  <path class="st0" d="M110.93,102.3l-12.72-21.5,11.27-18.4c1.02-1.69-.2-3.84-2.17-3.83l-13.39.05c-1.5,0-2.9.85-3.64,2.17l-8.47,15.3-.11-32.12c0-1.87-1.51-3.37-3.38-3.36l-11.89.04c-1.78,0-3.27,1.51-3.27,3.38l.21,58.82c0,1.87,1.51,3.37,3.29,3.36l11.89-.04c1.87,0,3.37-1.51,3.36-3.38l-.06-15.92,9.05,17.01c.66,1.4,2.16,2.24,3.66,2.23l14.33-.05c1.87,0,3.08-2.17,2.05-3.75Z"/>
  <path class="st2" d="M107.94,100.87l-12.64-21.54,11.33-18.36c1.03-1.69-.19-3.84-2.15-3.84h-13.39c-1.5,0-2.9.84-3.65,2.15l-8.52,15.27v-32.12c0-1.87-1.5-3.37-3.37-3.37h-11.89c-1.78,0-3.28,1.5-3.28,3.37v58.82c0,1.87,1.5,3.37,3.28,3.37h11.89c1.87,0,3.37-1.5,3.37-3.37v-15.92l8.99,17.05c.66,1.4,2.15,2.25,3.65,2.25h14.33c1.87,0,3.09-2.15,2.06-3.75Z"/>
  <path class="st0" d="M41.49,88.81v-8.22h17.91c2.45,0,4.4-1.96,4.4-4.4v-7.15c0-2.35-1.96-4.31-4.4-4.31h-17.91v-7.63h21.04c2.35,0,4.31-1.96,4.31-4.31v-9.79c0-2.35-1.96-4.31-4.31-4.31H23.87c-2.45,0-4.4,1.96-4.4,4.31v59.8c0,2.45,1.96,4.4,4.4,4.4h39.54c2.45,0,4.4-1.96,4.4-4.4v-9.69c0-2.35-1.96-4.31-4.4-4.31h-21.93Z"/>
  <path class="st2" d="M40.75,87.18v-7.87h17.14c2.34,0,4.21-1.87,4.21-4.21v-6.84c0-2.25-1.87-4.12-4.21-4.12h-17.14v-7.31h20.14c2.25,0,4.12-1.87,4.12-4.12v-9.37c0-2.25-1.87-4.12-4.12-4.12H23.89c-2.34,0-4.21,1.87-4.21,4.12v57.22c0,2.34,1.87,4.21,4.21,4.21h37.84c2.34,0,4.21-1.87,4.21-4.21v-9.27c0-2.25-1.87-4.12-4.21-4.12h-20.98Z"/>
  <path class="st5" d="M183.6,39.86c.23-.67.96-1.02,1.63-.79.67.23,1.02.96.79,1.63l-2.19,6.33c-.23.67-.96,1.02-1.63.79-.67-.23-1.02-.96-.79-1.63l2.19-6.33Z"/>
  <path class="st5" d="M199.52,48.88c.51-.49,1.32-.48,1.81.03.49.51.48,1.32-.03,1.81l-4.81,4.66c-.51.49-1.32.48-1.81-.03-.49-.51-.48-1.32.03-1.81l4.81-4.66Z"/>
  <path class="st5" d="M207.56,67.09c.7-.12,1.36.36,1.47,1.05.12.7-.36,1.36-1.05,1.48l-6.6,1.12c-.7.12-1.36-.36-1.47-1.05-.12-.7.36-1.36,1.05-1.48l6.6-1.12Z"/>
</svg>